<svg id="Laag_1" data-name="Laag 1" xmlns="http://www.w3.org/2000/svg" viewBox="0 0 500 500">
    <defs>
        <style>.cls-1{fill:#78e093;}</style>
    </defs>
    <title>wit_usc_logo_tweede_golf_circle</title>
    <path class="cls-1"
          d="M250,0C111.93,0,0,111.93,0,250S111.93,500,250,500,500,388.07,500,250,388.07,0,250,0ZM125.7,367.5h-34c21-17.5,51.4-54.4,64.2-121.9,14.8-77.9,72.3-119.8,125.3-112.7l.3.3c-44.9,12.7-79.2,55.3-90,112.1-13.2,70-45.3,105.1-63.2,120Zm8.7-.1c18.8-16.5,49.6-52.9,62.6-121.3,10.7-56,44.9-97.6,89.5-108.6a88,88,0,0,1,92.4,33.9,76.49,76.49,0,0,1,17.3,65.5,74.58,74.58,0,0,1-28.6,43.7,33.5,33.5,0,0,0,1.7-10.6,31.65,31.65,0,0,0-63.3,0c0,.6-4.2,70,102.3,97.9ZM320,250l.25-.23A25.29,25.29,0,0,1,356,251.2l-.6.2a75.58,75.58,0,0,1-34.2,36.9A30,30,0,0,0,320,250Z"/>
</svg>